<svg xmlns="http://www.w3.org/2000/svg" width="1587" height="1153" fill="none" viewBox="0 0 1587 1153"><g clip-path="url(#clip0_565_7)"><path stroke="#EEE" stroke-width="3" d="M832.939 825.456L885.972 772.423"/><path stroke="#EEE" stroke-width="3" d="M856.955 814.973L909.988 761.94"/><path stroke="#EEE" stroke-width="3" d="M1035.94 222.456L1088.97 169.423"/><path stroke="#EEE" stroke-width="3" d="M1059.96 211.972L1112.99 158.939"/><path stroke="#EEE" stroke-width="3" d="M483.939 649.456L536.972 596.423"/><path stroke="#EEE" stroke-width="3" d="M507.955 638.972L560.988 585.939"/><path stroke="#EEE" stroke-width="3" d="M13.9395 1055.46L66.9725 1002.42"/><path stroke="#EEE" stroke-width="3" d="M37.9551 1044.97L90.9882 991.94"/><path stroke="#EEE" stroke-width="3" d="M1418.94 561.456L1471.97 508.423"/><path stroke="#EEE" stroke-width="3" d="M1442.96 550.972L1495.99 497.939"/><path stroke="#EEE" stroke-width="3" d="M1445.94 889.456L1498.97 836.423"/><path stroke="#EEE" stroke-width="3" d="M1469.96 878.973L1522.99 825.94"/><path stroke="#EEE" stroke-width="3" d="M287.939 365.456L340.972 312.423"/><path stroke="#EEE" stroke-width="3" d="M311.955 354.972L364.988 301.939"/><path stroke="#EEE" stroke-width="3" d="M944.939 660.456L997.972 607.423"/><path stroke="#EEE" stroke-width="3" d="M968.955 649.972L1021.99 596.939"/><path stroke="#EEE" stroke-width="3" d="M-1.06055 436.456L51.9724 383.423"/><path stroke="#EEE" stroke-width="3" d="M22.9551 425.972L75.9882 372.939"/><path fill="#EEE" d="M269.519 671.506L264.76 689.265L251.76 676.264L269.519 671.506Z"/><path fill="#EEE" d="M704.519 891.506L699.76 909.265L686.76 896.264L704.519 891.506Z"/><path fill="#EEE" d="M320.519 146.506L315.76 164.265L302.76 151.264L320.519 146.506Z"/><path fill="#EEE" d="M691.509 697.503L685.484 719.987L669.025 703.528L691.509 697.503Z"/><path fill="#EEE" d="M1402.51 651.503L1396.48 673.987L1380.02 657.528L1402.51 651.503Z"/><path fill="#EEE" d="M1307.51 333.503L1301.48 355.987L1285.02 339.528L1307.51 333.503Z"/><path fill="#EEE" d="M1194.51 680.503L1188.48 702.987L1172.02 686.528L1194.51 680.503Z"/><path fill="#EEE" d="M1499.51 1152.5L1493.48 1174.99L1477.02 1158.53L1499.51 1152.5Z"/><path fill="#EEE" d="M59.0187 235.673L51.6184 263.291L31.4004 243.073L59.0187 235.673Z"/><path stroke="#EEE" stroke-width="3" d="M60.9395 63.4559L113.972 10.4229"/><path stroke="#EEE" stroke-width="3" d="M84.9551 52.9725L137.988 -0.0605469"/></g><defs><clipPath id="clip0_565_7"><rect width="1587" height="1153" fill="#fff"/></clipPath></defs></svg>